<?xml version="1.0" encoding="UTF-8"?> <svg xmlns="http://www.w3.org/2000/svg" width="55" height="54" viewBox="0 0 55 54" fill="none"> <g filter="url(#filter0_d)"> <path d="M37.0647 16.7756H18.7939C18.3545 16.7756 17.9995 17.1306 17.9995 17.57V35.8408C17.9995 36.2802 18.3545 36.6351 18.7939 36.6351H37.0647C37.5041 36.6351 37.8591 36.2802 37.8591 35.8408V17.57C37.8591 17.1306 37.5041 16.7756 37.0647 16.7756ZM36.2703 35.0464H31.7001V28.9445H34.2819L34.6691 25.9482H31.7001V24.0343C31.7001 23.1654 31.9409 22.5746 33.1846 22.5746H34.7709V19.8936C34.4953 19.8563 33.5545 19.7744 32.4573 19.7744C30.1684 19.7744 28.602 21.172 28.602 23.7364V25.9457H26.0153V28.9421H28.6045V35.0464H19.5883V18.3644H36.2703V35.0464Z" fill="white"></path> </g> <defs> <filter id="filter0_d" x="0.973145" y="0" width="53.4202" height="53.4202" filterUnits="userSpaceOnUse" color-interpolation-filters="sRGB"> <feFlood flood-opacity="0" result="BackgroundImageFix"></feFlood> <feColorMatrix in="SourceAlpha" type="matrix" values="0 0 0 0 0 0 0 0 0 0 0 0 0 0 0 0 0 0 127 0"></feColorMatrix> <feOffset></feOffset> <feGaussianBlur stdDeviation="7"></feGaussianBlur> <feColorMatrix type="matrix" values="0 0 0 0 0.168627 0 0 0 0 0.72549 0 0 0 0 0.807843 0 0 0 1 0"></feColorMatrix> <feBlend mode="normal" in2="BackgroundImageFix" result="effect1_dropShadow"></feBlend> <feBlend mode="normal" in="SourceGraphic" in2="effect1_dropShadow" result="shape"></feBlend> </filter> </defs> </svg> 