<?xml version="1.0" encoding="UTF-8"?> <svg xmlns="http://www.w3.org/2000/svg" width="48" height="48" viewBox="0 0 48 48" fill="none"> <g filter="url(#filter0_d)"> <path d="M27.5531 24.8187C28.4718 24.8187 29.2175 24.0731 29.2175 23.1543C29.2175 22.2355 28.4718 21.4899 27.5531 21.4899H22.5598V18.9933C22.5598 18.0745 21.8141 17.3288 20.8954 17.3288C19.9766 17.3288 19.231 18.0745 19.231 18.9933V25.6509C19.231 28.405 21.4707 30.6442 24.2242 30.6442H27.5531C28.4718 30.6442 29.2175 29.8985 29.2175 28.9798C29.2175 28.061 28.4718 27.3153 27.5531 27.3153H24.2242C23.3066 27.3153 22.5598 26.5686 22.5598 25.6509V24.8187H27.5531Z" fill="white"></path> <rect x="15" y="15" width="17.973" height="17.973" stroke="white" stroke-width="2"></rect> </g> <defs> <filter id="filter0_d" x="0" y="0" width="47.973" height="47.973" filterUnits="userSpaceOnUse" color-interpolation-filters="sRGB"> <feFlood flood-opacity="0" result="BackgroundImageFix"></feFlood> <feColorMatrix in="SourceAlpha" type="matrix" values="0 0 0 0 0 0 0 0 0 0 0 0 0 0 0 0 0 0 127 0"></feColorMatrix> <feOffset></feOffset> <feGaussianBlur stdDeviation="7"></feGaussianBlur> <feColorMatrix type="matrix" values="0 0 0 0 0.168627 0 0 0 0 0.72549 0 0 0 0 0.807843 0 0 0 1 0"></feColorMatrix> <feBlend mode="normal" in2="BackgroundImageFix" result="effect1_dropShadow"></feBlend> <feBlend mode="normal" in="SourceGraphic" in2="effect1_dropShadow" result="shape"></feBlend> </filter> </defs> </svg> 