<?xml version="1.0" encoding="UTF-8"?> <svg xmlns="http://www.w3.org/2000/svg" width="54" height="48" viewBox="0 0 54 48" fill="none"> <g filter="url(#filter0_d)"> <path d="M31.2219 23.05L25.264 19.3263C25.0344 19.1828 24.745 19.1752 24.5082 19.3064C24.2714 19.4377 24.1245 19.6871 24.1245 19.9578V27.4052C24.1245 27.6759 24.2714 27.9253 24.5082 28.0566C24.6208 28.1189 24.7451 28.1499 24.8692 28.1499C25.0064 28.1499 25.1434 28.112 25.264 28.0367L31.2218 24.313C31.4396 24.1769 31.5718 23.9383 31.5718 23.6815C31.5718 23.4247 31.4396 23.1861 31.2219 23.05ZM25.614 26.0615V21.3015L29.422 23.6815L25.614 26.0615Z" fill="white"></path> <path d="M36.0901 14H18.1172C16.064 14 14.3936 15.6704 14.3936 17.7237V29.6394C14.3936 31.6926 16.064 33.3631 18.1172 33.3631H36.0901C38.1433 33.3631 39.8138 31.6926 39.8138 29.6394V17.7237C39.8138 15.6704 38.1433 14 36.0901 14ZM38.3243 29.6394C38.3243 30.8713 37.322 31.8736 36.0901 31.8736H18.1172C16.8853 31.8736 15.883 30.8713 15.883 29.6394V17.7237C15.883 16.4917 16.8853 15.4895 18.1172 15.4895H36.0901C37.322 15.4895 38.3243 16.4917 38.3243 17.7237V29.6394Z" fill="white"></path> </g> <defs> <filter id="filter0_d" x="0.393555" y="0" width="53.4202" height="47.3631" filterUnits="userSpaceOnUse" color-interpolation-filters="sRGB"> <feFlood flood-opacity="0" result="BackgroundImageFix"></feFlood> <feColorMatrix in="SourceAlpha" type="matrix" values="0 0 0 0 0 0 0 0 0 0 0 0 0 0 0 0 0 0 127 0"></feColorMatrix> <feOffset></feOffset> <feGaussianBlur stdDeviation="7"></feGaussianBlur> <feColorMatrix type="matrix" values="0 0 0 0 0.168627 0 0 0 0 0.72549 0 0 0 0 0.807843 0 0 0 1 0"></feColorMatrix> <feBlend mode="normal" in2="BackgroundImageFix" result="effect1_dropShadow"></feBlend> <feBlend mode="normal" in="SourceGraphic" in2="effect1_dropShadow" result="shape"></feBlend> </filter> </defs> </svg> 