<?xml version="1.0" encoding="UTF-8"?> <svg xmlns="http://www.w3.org/2000/svg" width="49" height="48" viewBox="0 0 49 48" fill="none"> <g clip-path="url(#clip0)" filter="url(#filter0_d)"> <path d="M20.6439 30.5234H17.9095V21.6953H20.6439V30.5234ZM20.9167 18.8827C20.9167 17.9987 20.1995 17.2812 19.316 17.2812C18.4292 17.2812 17.7139 17.9987 17.7139 18.8827C17.7139 19.7669 18.4292 20.4844 19.316 20.4844C20.1995 20.4844 20.9167 19.7669 20.9167 18.8827ZM30.8779 25.6666C30.8779 23.2967 30.3773 21.5391 27.6089 21.5391C26.2786 21.5391 25.3857 22.2043 25.0211 22.8962H25.0186V21.6953H22.3623V30.5234H25.0186V26.1402C25.0186 24.9923 25.3108 23.8802 26.7336 23.8802C28.1371 23.8802 28.1826 25.1929 28.1826 26.2131V30.5234H30.8779V25.6666ZM34.3936 31.6562V16.3438C34.3936 15.0513 33.3422 14 32.0498 14H16.7373C15.4449 14 14.3936 15.0513 14.3936 16.3438V31.6562C14.3936 32.9487 15.4449 34 16.7373 34H32.0498C33.3422 34 34.3936 32.9487 34.3936 31.6562ZM32.0498 15.5625C32.4806 15.5625 32.8311 15.913 32.8311 16.3438V31.6562C32.8311 32.087 32.4806 32.4375 32.0498 32.4375H16.7373C16.3065 32.4375 15.9561 32.087 15.9561 31.6562V16.3438C15.9561 15.913 16.3065 15.5625 16.7373 15.5625H32.0498Z" fill="white"></path> </g> <defs> <filter id="filter0_d" x="0.393555" y="0" width="48" height="48" filterUnits="userSpaceOnUse" color-interpolation-filters="sRGB"> <feFlood flood-opacity="0" result="BackgroundImageFix"></feFlood> <feColorMatrix in="SourceAlpha" type="matrix" values="0 0 0 0 0 0 0 0 0 0 0 0 0 0 0 0 0 0 127 0"></feColorMatrix> <feOffset></feOffset> <feGaussianBlur stdDeviation="7"></feGaussianBlur> <feColorMatrix type="matrix" values="0 0 0 0 0.168627 0 0 0 0 0.72549 0 0 0 0 0.807843 0 0 0 1 0"></feColorMatrix> <feBlend mode="normal" in2="BackgroundImageFix" result="effect1_dropShadow"></feBlend> <feBlend mode="normal" in="SourceGraphic" in2="effect1_dropShadow" result="shape"></feBlend> </filter> <clipPath id="clip0"> <rect width="20" height="20" fill="white" transform="translate(14.3936 14)"></rect> </clipPath> </defs> </svg> 