<?xml version="1.0" encoding="UTF-8"?> <svg xmlns="http://www.w3.org/2000/svg" width="49" height="48" viewBox="0 0 49 48" fill="none"> <g filter="url(#filter0_d)"> <path d="M24.8108 18.869C21.9714 18.869 19.6799 21.1606 19.6799 24C19.6799 26.8394 21.9714 29.131 24.8108 29.131C27.6502 29.131 29.9417 26.8394 29.9417 24C29.9417 21.1606 27.6502 18.869 24.8108 18.869ZM24.8108 27.3348C22.9746 27.3348 21.4761 25.8362 21.4761 24C21.4761 22.1638 22.9746 20.6652 24.8108 20.6652C26.647 20.6652 28.1455 22.1638 28.1455 24C28.1455 25.8362 26.647 27.3348 24.8108 27.3348ZM30.1518 17.4631C29.4889 17.4631 28.9535 17.9984 28.9535 18.6614C28.9535 19.3243 29.4889 19.8597 30.1518 19.8597C30.8147 19.8597 31.3501 19.3268 31.3501 18.6614C31.3503 18.504 31.3194 18.3481 31.2593 18.2026C31.1991 18.0571 31.1109 17.9249 30.9996 17.8136C30.8882 17.7023 30.7561 17.614 30.6106 17.5539C30.4651 17.4937 30.3092 17.4629 30.1518 17.4631ZM34.8124 24C34.8124 22.6191 34.8249 21.2506 34.7473 19.8722C34.6698 18.2711 34.3045 16.8502 33.1338 15.6794C31.9605 14.5061 30.5421 14.1433 28.941 14.0658C27.5601 13.9882 26.1917 14.0007 24.8133 14.0007C23.4324 14.0007 22.064 13.9882 20.6856 14.0658C19.0845 14.1433 17.6636 14.5086 16.4928 15.6794C15.3196 16.8527 14.9568 18.2711 14.8793 19.8722C14.8017 21.2531 14.8142 22.6216 14.8142 24C14.8142 25.3784 14.8017 26.7494 14.8793 28.1278C14.9568 29.7289 15.3221 31.1498 16.4928 32.3206C17.6661 33.4939 19.0845 33.8567 20.6856 33.9342C22.0665 34.0118 23.4349 33.9993 24.8133 33.9993C26.1942 33.9993 27.5626 34.0118 28.941 33.9342C30.5421 33.8567 31.963 33.4914 33.1338 32.3206C34.307 31.1473 34.6698 29.7289 34.7473 28.1278C34.8274 26.7494 34.8124 25.3809 34.8124 24ZM32.6109 29.899C32.4283 30.3543 32.2081 30.6945 31.8554 31.0448C31.5027 31.3975 31.165 31.6176 30.7097 31.8003C29.3938 32.3231 26.2692 32.2055 24.8108 32.2055C23.3523 32.2055 20.2253 32.3231 18.9094 31.8028C18.4541 31.6202 18.1139 31.4 17.7637 31.0473C17.4109 30.6945 17.1908 30.3568 17.0082 29.9015C16.4878 28.5831 16.6054 25.4585 16.6054 24C16.6054 22.5415 16.4878 19.4144 17.0082 18.0985C17.1908 17.6432 17.4109 17.303 17.7637 16.9527C18.1164 16.6025 18.4541 16.3799 18.9094 16.1972C20.2253 15.6769 23.3523 15.7945 24.8108 15.7945C26.2692 15.7945 29.3963 15.6769 30.7122 16.1972C31.1675 16.3799 31.5077 16.6 31.8579 16.9527C32.2107 17.3055 32.4308 17.6432 32.6134 18.0985C33.1338 19.4144 33.0162 22.5415 33.0162 24C33.0162 25.4585 33.1338 28.5831 32.6109 29.899Z" fill="white"></path> </g> <defs> <filter id="filter0_d" x="0.813477" y="0" width="48" height="48" filterUnits="userSpaceOnUse" color-interpolation-filters="sRGB"> <feFlood flood-opacity="0" result="BackgroundImageFix"></feFlood> <feColorMatrix in="SourceAlpha" type="matrix" values="0 0 0 0 0 0 0 0 0 0 0 0 0 0 0 0 0 0 127 0"></feColorMatrix> <feOffset></feOffset> <feGaussianBlur stdDeviation="7"></feGaussianBlur> <feColorMatrix type="matrix" values="0 0 0 0 0.168627 0 0 0 0 0.72549 0 0 0 0 0.807843 0 0 0 1 0"></feColorMatrix> <feBlend mode="normal" in2="BackgroundImageFix" result="effect1_dropShadow"></feBlend> <feBlend mode="normal" in="SourceGraphic" in2="effect1_dropShadow" result="shape"></feBlend> </filter> </defs> </svg> 